<?xml version="1.0" encoding="iso-8859-1"?><!-- Generator: Adobe Illustrator 22.1.0, SVG Export Plug-In . SVG Version: 6.00 Build 0)  --><svg xmlns="http://www.w3.org/2000/svg" xmlns:xlink="http://www.w3.org/1999/xlink" viewBox="0 0 50 50" width="500px" height="500px"><g></g><g></g><g></g><path d="M27,17h2.505v5.802h0.044c0.681-1.099,2.11-1.78,3.385-1.78c3.582,0,5.319,2.726,5.319,6.045c0,3.054-1.538,5.933-4.902,5.933c-1.538,0-3.187-0.373-3.935-1.868h-0.043v1.561H27L27,17L27,17z M32.605,23c-2.109,0-3.187,1.605-3.187,4.022c0,2.285,1.165,4,3.187,4c2.286,0,3.143-2.022,3.143-4C35.747,24.956,34.669,23,32.605,23"/><path d="M47.495,25.132C47.297,23.748,46.286,23,44.901,23c-1.297,0-3.121,0.682-3.121,4.132c0,1.89,0.835,3.891,3.011,3.891c1.45,0,2.461-0.968,2.704-2.595H50C49.538,31.373,47.714,33,44.791,33c-3.561,0-5.517-2.527-5.517-5.868c0-3.428,1.868-6.11,5.605-6.11c2.637,0,4.88,1.319,5.121,4.11h-2.501H47.495z"/><path d="M27,17H8.595L0,33h18.405L27,17L27,17z"/></svg>